<svg xmlns="http://www.w3.org/2000/svg" viewBox="0 0 64 64" stroke-linecap="round" stroke="#991b1b" fill="#991b1b"
    stroke-linejoin="round">
    <rect width="56" height="56" x="4" y="4" rx="12" ry="12" fill="transparent" stroke-width="8px" />
    <path stroke-width="4px" d="
              M 19 46
              L 43 46
              L 41 53
              L 21 53
              L 19 46" />
    /** Left Leaves */
    <path stroke-width="6px" d="
              M 13 30
              L 25 30" />
    <path stroke-width="6px" d="
              M 18 27
              L 22 27" />
    /** Right Leaves */
    <path stroke-width="6px" d="
              M 41 34
              L 51 34" />
    <path stroke-width="6px" d="
              M 44 31
              L 47 31" />
    /** Top Leaves */
    <path stroke-width="6px" d="
              M 23 20
              L 47 20" />
    <path stroke-width="6px" d="
              M 29 17
              L 43 17" />
    <path stroke-width="6px" d="
              M 35 14
              L 39 14" />
    /** Trunk */
    <path stroke-width="4px" fill="transparent" d="
              M 25 44
              C 27 32, 37 34, 32 20" />
    <path stroke-width="4px" fill="transparent" d="
              M 37 44
              C 33 32, 42 34, 37 20" />
    /** Left Branch */
    <path stroke-width="4px" fill="transparent" d="
              M 25 44
              C 27 32, 19 38, 19 30" />
    /** Right Branch */
    <path stroke-width="4px" fill="transparent" d="
              M 36 47
              C 39 33, 47 48, 46 31" />
</svg>